<?xml version="1.0" encoding="UTF-8" standalone="no"?><svg xmlns="http://www.w3.org/2000/svg" xmlns:xlink="http://www.w3.org/1999/xlink" contentStyleType="text/css" height="232px" preserveAspectRatio="none" style="width:506px;height:232px;background:#FFFFFF;" version="1.1" viewBox="0 0 506 232" width="506px" zoomAndPan="magnify"><defs/><g><!--class Frame--><g id="elem_Frame"><rect codeLine="6" fill="#FFFFFF" height="32" id="Frame" rx="2.5" ry="2.5" style="stroke:#181818;stroke-width:0.5;" width="78" x="296.5" y="100"/><ellipse cx="311.5" cy="116" fill="#FFFFFF" rx="11" ry="11" style="stroke:#181818;stroke-width:1.0;"/><path d="M313.5781,117.8125 L313.9688,118.7969 L313.5781,118.7969 C313.125,118.7969 313.0156,118.8125 312.8594,118.9219 C312.6094,119.0781 312.4531,119.3594 312.4531,119.6563 C312.4531,119.9219 312.5938,120.1719 312.8125,120.3281 C312.9531,120.4531 313.1563,120.5 313.5781,120.5 L315.9375,120.5 C316.2969,120.5 316.5156,120.4688 316.6563,120.375 C316.9063,120.2344 317.0625,119.9375 317.0625,119.6563 C317.0625,119.375 316.9219,119.125 316.7031,118.9688 C316.5313,118.8281 316.375,118.7969 315.9063,118.7969 L312.5156,110.5938 L308.8438,110.5938 C308.3906,110.5938 308.2656,110.6094 308.1094,110.7031 C307.8594,110.875 307.7031,111.1563 307.7031,111.4375 C307.7031,111.7188 307.8438,111.9688 308.0625,112.1406 C308.2344,112.25 308.4063,112.2813 308.8438,112.2813 L309.9219,112.2813 L307.2813,118.7969 C306.8594,118.7969 306.7031,118.8125 306.5469,118.9219 C306.2969,119.0781 306.1406,119.3594 306.1406,119.6563 C306.1406,120.2188 306.5156,120.5 307.2656,120.5 L309.5313,120.5 C309.8906,120.5 310.1094,120.4688 310.2344,120.375 C310.5,120.2344 310.6406,119.9375 310.6406,119.6563 C310.6406,119.375 310.5156,119.125 310.2969,118.9531 C310.125,118.8281 309.9844,118.7969 309.5313,118.7969 L309.1406,118.7969 L309.5313,117.8125 L313.5781,117.8125 Z M312.875,116.1094 L310.2031,116.1094 L311.5469,112.8438 L312.875,116.1094 Z " fill="#000000"/><text fill="#000000" font-family="sans-serif" font-size="14" font-style="italic" lengthAdjust="spacing" textLength="46" x="325.5" y="120.8467">Frame</text></g><!--class Element--><g id="elem_Element"><rect codeLine="9" fill="#FFFFFF" height="32" id="Element" rx="2.5" ry="2.5" style="stroke:#181818;stroke-width:0.5;" width="91" x="290" y="193"/><ellipse cx="305" cy="209" fill="#FFFFFF" rx="11" ry="11" style="stroke:#181818;stroke-width:1.0;"/><path d="M307.0781,210.8125 L307.4688,211.7969 L307.0781,211.7969 C306.625,211.7969 306.5156,211.8125 306.3594,211.9219 C306.1094,212.0781 305.9531,212.3594 305.9531,212.6563 C305.9531,212.9219 306.0938,213.1719 306.3125,213.3281 C306.4531,213.4531 306.6563,213.5 307.0781,213.5 L309.4375,213.5 C309.7969,213.5 310.0156,213.4688 310.1563,213.375 C310.4063,213.2344 310.5625,212.9375 310.5625,212.6563 C310.5625,212.375 310.4219,212.125 310.2031,211.9688 C310.0313,211.8281 309.875,211.7969 309.4063,211.7969 L306.0156,203.5938 L302.3438,203.5938 C301.8906,203.5938 301.7656,203.6094 301.6094,203.7031 C301.3594,203.875 301.2031,204.1563 301.2031,204.4375 C301.2031,204.7188 301.3438,204.9688 301.5625,205.1406 C301.7344,205.25 301.9063,205.2813 302.3438,205.2813 L303.4219,205.2813 L300.7813,211.7969 C300.3594,211.7969 300.2031,211.8125 300.0469,211.9219 C299.7969,212.0781 299.6406,212.3594 299.6406,212.6563 C299.6406,213.2188 300.0156,213.5 300.7656,213.5 L303.0313,213.5 C303.3906,213.5 303.6094,213.4688 303.7344,213.375 C304,213.2344 304.1406,212.9375 304.1406,212.6563 C304.1406,212.375 304.0156,212.125 303.7969,211.9531 C303.625,211.8281 303.4844,211.7969 303.0313,211.7969 L302.6406,211.7969 L303.0313,210.8125 L307.0781,210.8125 Z M306.375,209.1094 L303.7031,209.1094 L305.0469,205.8438 L306.375,209.1094 Z " fill="#000000"/><text fill="#000000" font-family="sans-serif" font-size="14" font-style="italic" lengthAdjust="spacing" textLength="59" x="319" y="213.8467">Element</text></g><!--class Message--><g id="elem_Message"><rect codeLine="12" fill="#FFFFFF" height="32" id="Message" rx="2.5" ry="2.5" style="stroke:#181818;stroke-width:0.5;" width="93" x="168" y="100"/><ellipse cx="183" cy="116" fill="#FFFFFF" rx="11" ry="11" style="stroke:#181818;stroke-width:1.0;"/><path d="M185.3438,111.6719 C184.4063,111.2344 183.8125,111.0938 182.9375,111.0938 C180.3125,111.0938 178.3125,113.1719 178.3125,115.8906 L178.3125,117.0156 C178.3125,119.5938 180.4219,121.4844 183.3125,121.4844 C184.5313,121.4844 185.6875,121.1875 186.4375,120.6406 C187.0156,120.2344 187.3438,119.7813 187.3438,119.3906 C187.3438,118.9375 186.9531,118.5469 186.4844,118.5469 C186.2656,118.5469 186.0625,118.625 185.875,118.8125 C185.4219,119.2969 185.4219,119.2969 185.2344,119.3906 C184.8125,119.6563 184.125,119.7813 183.3594,119.7813 C181.3125,119.7813 180.0156,118.6875 180.0156,116.9844 L180.0156,115.8906 C180.0156,114.1094 181.2656,112.7969 183,112.7969 C183.5781,112.7969 184.1875,112.9531 184.6563,113.2031 C185.1406,113.4844 185.3125,113.7031 185.4063,114.1094 C185.4688,114.5156 185.5,114.6406 185.6406,114.7656 C185.7813,114.9063 186.0156,115.0156 186.2344,115.0156 C186.5,115.0156 186.7656,114.875 186.9375,114.6563 C187.0469,114.5 187.0781,114.3125 187.0781,113.8906 L187.0781,112.4688 C187.0781,112.0313 187.0625,111.9063 186.9688,111.75 C186.8125,111.4844 186.5313,111.3438 186.2344,111.3438 C185.9375,111.3438 185.7344,111.4375 185.5156,111.75 L185.3438,111.6719 Z " fill="#000000"/><text fill="#000000" font-family="sans-serif" font-size="14" lengthAdjust="spacing" textLength="61" x="197" y="120.8467">Message</text></g><!--class Object--><g id="elem_Object"><rect codeLine="13" fill="#FFFFFF" height="32" id="Object" rx="2.5" ry="2.5" style="stroke:#181818;stroke-width:0.5;" width="81" x="7" y="100"/><ellipse cx="22" cy="116" fill="#FFFFFF" rx="11" ry="11" style="stroke:#181818;stroke-width:1.0;"/><path d="M24.3438,111.6719 C23.4063,111.2344 22.8125,111.0938 21.9375,111.0938 C19.3125,111.0938 17.3125,113.1719 17.3125,115.8906 L17.3125,117.0156 C17.3125,119.5938 19.4219,121.4844 22.3125,121.4844 C23.5313,121.4844 24.6875,121.1875 25.4375,120.6406 C26.0156,120.2344 26.3438,119.7813 26.3438,119.3906 C26.3438,118.9375 25.9531,118.5469 25.4844,118.5469 C25.2656,118.5469 25.0625,118.625 24.875,118.8125 C24.4219,119.2969 24.4219,119.2969 24.2344,119.3906 C23.8125,119.6563 23.125,119.7813 22.3594,119.7813 C20.3125,119.7813 19.0156,118.6875 19.0156,116.9844 L19.0156,115.8906 C19.0156,114.1094 20.2656,112.7969 22,112.7969 C22.5781,112.7969 23.1875,112.9531 23.6563,113.2031 C24.1406,113.4844 24.3125,113.7031 24.4063,114.1094 C24.4688,114.5156 24.5,114.6406 24.6406,114.7656 C24.7813,114.9063 25.0156,115.0156 25.2344,115.0156 C25.5,115.0156 25.7656,114.875 25.9375,114.6563 C26.0469,114.5 26.0781,114.3125 26.0781,113.8906 L26.0781,112.4688 C26.0781,112.0313 26.0625,111.9063 25.9688,111.75 C25.8125,111.4844 25.5313,111.3438 25.2344,111.3438 C24.9375,111.3438 24.7344,111.4375 24.5156,111.75 L24.3438,111.6719 Z " fill="#000000"/><text fill="#000000" font-family="sans-serif" font-size="14" lengthAdjust="spacing" textLength="49" x="36" y="120.8467">Object</text></g><!--class sd--><g id="elem_sd"><rect codeLine="27" fill="#FFFFFF" height="32" id="sd" rx="2.5" ry="2.5" style="stroke:#181818;stroke-width:0.5;" width="48" x="172.5" y="7"/><ellipse cx="187.5" cy="23" fill="#FFFFFF" rx="11" ry="11" style="stroke:#181818;stroke-width:1.0;"/><path d="M189.8438,18.6719 C188.9063,18.2344 188.3125,18.0938 187.4375,18.0938 C184.8125,18.0938 182.8125,20.1719 182.8125,22.8906 L182.8125,24.0156 C182.8125,26.5938 184.9219,28.4844 187.8125,28.4844 C189.0313,28.4844 190.1875,28.1875 190.9375,27.6406 C191.5156,27.2344 191.8438,26.7813 191.8438,26.3906 C191.8438,25.9375 191.4531,25.5469 190.9844,25.5469 C190.7656,25.5469 190.5625,25.625 190.375,25.8125 C189.9219,26.2969 189.9219,26.2969 189.7344,26.3906 C189.3125,26.6563 188.625,26.7813 187.8594,26.7813 C185.8125,26.7813 184.5156,25.6875 184.5156,23.9844 L184.5156,22.8906 C184.5156,21.1094 185.7656,19.7969 187.5,19.7969 C188.0781,19.7969 188.6875,19.9531 189.1563,20.2031 C189.6406,20.4844 189.8125,20.7031 189.9063,21.1094 C189.9688,21.5156 190,21.6406 190.1406,21.7656 C190.2813,21.9063 190.5156,22.0156 190.7344,22.0156 C191,22.0156 191.2656,21.875 191.4375,21.6563 C191.5469,21.5 191.5781,21.3125 191.5781,20.8906 L191.5781,19.4688 C191.5781,19.0313 191.5625,18.9063 191.4688,18.75 C191.3125,18.4844 191.0313,18.3438 190.7344,18.3438 C190.4375,18.3438 190.2344,18.4375 190.0156,18.75 L189.8438,18.6719 Z " fill="#000000"/><text fill="#000000" font-family="sans-serif" font-size="14" lengthAdjust="spacing" textLength="16" x="201.5" y="27.8467">sd</text></g><!--class loop--><g id="elem_loop"><rect codeLine="28" fill="#FFFFFF" height="32" id="loop" rx="2.5" ry="2.5" style="stroke:#181818;stroke-width:0.5;" width="64" x="255.5" y="7"/><ellipse cx="270.5" cy="23" fill="#FFFFFF" rx="11" ry="11" style="stroke:#181818;stroke-width:1.0;"/><path d="M272.8438,18.6719 C271.9063,18.2344 271.3125,18.0938 270.4375,18.0938 C267.8125,18.0938 265.8125,20.1719 265.8125,22.8906 L265.8125,24.0156 C265.8125,26.5938 267.9219,28.4844 270.8125,28.4844 C272.0313,28.4844 273.1875,28.1875 273.9375,27.6406 C274.5156,27.2344 274.8438,26.7813 274.8438,26.3906 C274.8438,25.9375 274.4531,25.5469 273.9844,25.5469 C273.7656,25.5469 273.5625,25.625 273.375,25.8125 C272.9219,26.2969 272.9219,26.2969 272.7344,26.3906 C272.3125,26.6563 271.625,26.7813 270.8594,26.7813 C268.8125,26.7813 267.5156,25.6875 267.5156,23.9844 L267.5156,22.8906 C267.5156,21.1094 268.7656,19.7969 270.5,19.7969 C271.0781,19.7969 271.6875,19.9531 272.1563,20.2031 C272.6406,20.4844 272.8125,20.7031 272.9063,21.1094 C272.9688,21.5156 273,21.6406 273.1406,21.7656 C273.2813,21.9063 273.5156,22.0156 273.7344,22.0156 C274,22.0156 274.2656,21.875 274.4375,21.6563 C274.5469,21.5 274.5781,21.3125 274.5781,20.8906 L274.5781,19.4688 C274.5781,19.0313 274.5625,18.9063 274.4688,18.75 C274.3125,18.4844 274.0313,18.3438 273.7344,18.3438 C273.4375,18.3438 273.2344,18.4375 273.0156,18.75 L272.8438,18.6719 Z " fill="#000000"/><text fill="#000000" font-family="sans-serif" font-size="14" lengthAdjust="spacing" textLength="32" x="284.5" y="27.8467">loop</text></g><!--class opt--><g id="elem_opt"><rect codeLine="29" fill="#FFFFFF" height="32" id="opt" rx="2.5" ry="2.5" style="stroke:#181818;stroke-width:0.5;" width="58" x="354.5" y="7"/><ellipse cx="369.5" cy="23" fill="#FFFFFF" rx="11" ry="11" style="stroke:#181818;stroke-width:1.0;"/><path d="M371.8438,18.6719 C370.9063,18.2344 370.3125,18.0938 369.4375,18.0938 C366.8125,18.0938 364.8125,20.1719 364.8125,22.8906 L364.8125,24.0156 C364.8125,26.5938 366.9219,28.4844 369.8125,28.4844 C371.0313,28.4844 372.1875,28.1875 372.9375,27.6406 C373.5156,27.2344 373.8438,26.7813 373.8438,26.3906 C373.8438,25.9375 373.4531,25.5469 372.9844,25.5469 C372.7656,25.5469 372.5625,25.625 372.375,25.8125 C371.9219,26.2969 371.9219,26.2969 371.7344,26.3906 C371.3125,26.6563 370.625,26.7813 369.8594,26.7813 C367.8125,26.7813 366.5156,25.6875 366.5156,23.9844 L366.5156,22.8906 C366.5156,21.1094 367.7656,19.7969 369.5,19.7969 C370.0781,19.7969 370.6875,19.9531 371.1563,20.2031 C371.6406,20.4844 371.8125,20.7031 371.9063,21.1094 C371.9688,21.5156 372,21.6406 372.1406,21.7656 C372.2813,21.9063 372.5156,22.0156 372.7344,22.0156 C373,22.0156 373.2656,21.875 373.4375,21.6563 C373.5469,21.5 373.5781,21.3125 373.5781,20.8906 L373.5781,19.4688 C373.5781,19.0313 373.5625,18.9063 373.4688,18.75 C373.3125,18.4844 373.0313,18.3438 372.7344,18.3438 C372.4375,18.3438 372.2344,18.4375 372.0156,18.75 L371.8438,18.6719 Z " fill="#000000"/><text fill="#000000" font-family="sans-serif" font-size="14" lengthAdjust="spacing" textLength="26" x="383.5" y="27.8467">opt</text></g><!--class alt--><g id="elem_alt"><rect codeLine="30" fill="#FFFFFF" height="32" id="alt" rx="2.5" ry="2.5" style="stroke:#181818;stroke-width:0.5;" width="51" x="448" y="7"/><ellipse cx="463" cy="23" fill="#FFFFFF" rx="11" ry="11" style="stroke:#181818;stroke-width:1.0;"/><path d="M465.3438,18.6719 C464.4063,18.2344 463.8125,18.0938 462.9375,18.0938 C460.3125,18.0938 458.3125,20.1719 458.3125,22.8906 L458.3125,24.0156 C458.3125,26.5938 460.4219,28.4844 463.3125,28.4844 C464.5313,28.4844 465.6875,28.1875 466.4375,27.6406 C467.0156,27.2344 467.3438,26.7813 467.3438,26.3906 C467.3438,25.9375 466.9531,25.5469 466.4844,25.5469 C466.2656,25.5469 466.0625,25.625 465.875,25.8125 C465.4219,26.2969 465.4219,26.2969 465.2344,26.3906 C464.8125,26.6563 464.125,26.7813 463.3594,26.7813 C461.3125,26.7813 460.0156,25.6875 460.0156,23.9844 L460.0156,22.8906 C460.0156,21.1094 461.2656,19.7969 463,19.7969 C463.5781,19.7969 464.1875,19.9531 464.6563,20.2031 C465.1406,20.4844 465.3125,20.7031 465.4063,21.1094 C465.4688,21.5156 465.5,21.6406 465.6406,21.7656 C465.7813,21.9063 466.0156,22.0156 466.2344,22.0156 C466.5,22.0156 466.7656,21.875 466.9375,21.6563 C467.0469,21.5 467.0781,21.3125 467.0781,20.8906 L467.0781,19.4688 C467.0781,19.0313 467.0625,18.9063 466.9688,18.75 C466.8125,18.4844 466.5313,18.3438 466.2344,18.3438 C465.9375,18.3438 465.7344,18.4375 465.5156,18.75 L465.3438,18.6719 Z " fill="#000000"/><text fill="#000000" font-family="sans-serif" font-size="14" lengthAdjust="spacing" textLength="19" x="477" y="27.8467">alt</text></g><!--link Frame to Element--><g id="link_Frame_Element"><path codeLine="18" d="M325.741,132.0268 C323.11,143.1576 322.214,158.7913 323.056,172.9853 " fill="none" id="Frame-to-Element" style="stroke:#181818;stroke-width:1.0;"/><polygon fill="none" points="330.013,172.1973,325.736,192.9509,316.137,174.0601,330.013,172.1973" style="stroke:#181818;stroke-width:1.0;"/></g><!--reverse link Frame to Element--><g id="link_Frame_Element"><path codeLine="21" d="M348.052,144.8378 C349.838,160.6797 349.1,179.903 345.838,192.9509 " fill="none" id="Frame-backto-Element" style="stroke:#181818;stroke-width:1.0;"/><polygon fill="none" points="345.833,132.0268,342.916,138.6216,347.8815,143.8507,350.7986,137.2559,345.833,132.0268" style="stroke:#181818;stroke-width:1.0;"/></g><!--link Message to Element--><g id="link_Message_Element"><path codeLine="19" d="M234.481,132.0268 C252.083,145.2652 278.156,164.8732 299.403,180.853 " fill="none" id="Message-to-Element" style="stroke:#181818;stroke-width:1.0;"/><polygon fill="none" points="303.713,175.3353,315.49,192.9509,295.298,186.5242,303.713,175.3353" style="stroke:#181818;stroke-width:1.0;"/></g><!--reverse link Object to Message--><g id="link_Object_Message"><path codeLine="23" d="M93.5161,116 C116.658,116 144.647,116 167.873,116 " fill="none" id="Object-backto-Message" style="stroke:#181818;stroke-width:1.0;"/><polygon fill="#181818" points="88.3528,116,97.3528,120,93.3528,116,97.3528,112,88.3528,116" style="stroke:#181818;stroke-width:1.0;"/><text fill="#000000" font-family="sans-serif" font-size="13" lengthAdjust="spacing" textLength="43" x="106.5" y="109.0669">source</text></g><!--reverse link Object to Message--><g id="link_Object_Message"><path codeLine="24" d="M92.8979,132.8165 C97.7734,134.1149 102.704,135.2217 107.5,136 C125.487,138.9189 130.475,138.6711 148.5,136 C154.777,135.0698 161.284,133.6675 167.656,132.0285 " fill="none" id="Object-backto-Message-1" style="stroke:#181818;stroke-width:1.0;"/><polygon fill="#181818" points="88.0479,131.4592,95.6368,137.7368,92.8629,132.8068,97.7929,130.0328,88.0479,131.4592" style="stroke:#181818;stroke-width:1.0;"/><text fill="#000000" font-family="sans-serif" font-size="13" lengthAdjust="spacing" textLength="39" x="108.5" y="132.0669">target</text></g><!--link sd to Frame--><g id="link_sd_Frame"><path codeLine="32" d="M219.453,39.027 C240.077,52.529 270.821,72.656 295.484,88.803 " fill="none" id="sd-to-Frame" style="stroke:#181818;stroke-width:1.0;"/><polygon fill="none" points="299.614,83.14,312.513,99.951,291.946,94.853,299.614,83.14" style="stroke:#181818;stroke-width:1.0;"/></g><!--link loop to Frame--><g id="link_loop_Frame"><path codeLine="33" d="M295.426,39.027 C301.61,50.75 310.429,67.469 318.22,82.24 " fill="none" id="loop-to-Frame" style="stroke:#181818;stroke-width:1.0;"/><polygon fill="none" points="324.422,78.995,327.562,99.951,312.04,85.527,324.422,78.995" style="stroke:#181818;stroke-width:1.0;"/></g><!--link opt to Frame--><g id="link_opt_Frame"><path codeLine="34" d="M375.574,39.027 C369.39,50.75 360.571,67.469 352.78,82.24 " fill="none" id="opt-to-Frame" style="stroke:#181818;stroke-width:1.0;"/><polygon fill="none" points="358.96,85.527,343.438,99.951,346.578,78.995,358.96,85.527" style="stroke:#181818;stroke-width:1.0;"/></g><!--link alt to Frame--><g id="link_alt_Frame"><path codeLine="35" d="M450.712,39.027 C430.237,52.529 399.714,72.656 375.228,88.803 " fill="none" id="alt-to-Frame" style="stroke:#181818;stroke-width:1.0;"/><polygon fill="none" points="378.872,94.785,358.322,99.951,371.165,83.097,378.872,94.785" style="stroke:#181818;stroke-width:1.0;"/></g><!--SRC=[TO_DJiCm48JlVegzqGfCxb4L2QB22N4eBx1nbYIjxOriXnw0TyVvKmEXEMLtPhyPtzGXj3vDabQZ3PtHzufDeZHwByi6AuT6-5DZMun_aFVxHrIdod5dovmrEpZNJQ25oTTOyhcn5RoZzYI4mC87Xoh0m8Mdw2BOxM3pS3SSRo7BFiNtohZNPCY6jHNYTwlOVf0BRxm_F6-sAHo2Yw4HCnw_aFTOZJdvvNXINuiZgV1NdCWszblmX1WRI_cLpPt4ZF-rd8mivMKr9ycvKGgUEwVeFoMWgoWUJIrzUQM-PcwlIDo6AmhgjI9YnF24eRaOk8kvXot6dh0OHTsK18PCGUu7]--></g></svg>